<?xml version="1.0" encoding="UTF-8" standalone="no"?>
<!DOCTYPE svg PUBLIC "-//W3C//DTD SVG 1.1//EN"
 "http://www.w3.org/Graphics/SVG/1.1/DTD/svg11.dtd">
<!-- Generated by graphviz version 2.43.0 (0)
 -->
<!-- Title: controllers_diagram Pages: 1 -->
<svg width="502pt" height="465pt"
 viewBox="0.00 0.00 502.00 465.00" xmlns="http://www.w3.org/2000/svg" xmlns:xlink="http://www.w3.org/1999/xlink">
<g id="graph0" class="graph" transform="scale(1 1) rotate(0) translate(4 461)">
<title>controllers_diagram</title>
<polygon fill="transparent" stroke="transparent" points="-4,4 -4,-461 498,-461 498,4 -4,4"/>
<!-- _diagram_info -->
<g id="node1" class="node">
<title>_diagram_info</title>
<text text-anchor="start" x="44" y="-189.6" font-family="Times,serif" font-size="13.00">Controllers diagram</text>
<text text-anchor="start" x="44" y="-175.6" font-family="Times,serif" font-size="13.00">Date: Nov 07 2022 &#45; 01:24</text>
<text text-anchor="start" x="44" y="-161.6" font-family="Times,serif" font-size="13.00">Migration version: 20221107040403</text>
<text text-anchor="start" x="44" y="-147.6" font-family="Times,serif" font-size="13.00">Generated by RailRoady 1.6.0</text>
<text text-anchor="start" x="44" y="-133.6" font-family="Times,serif" font-size="13.00">http://railroady.prestonlee.com</text>
</g>
<!-- ApplicationController -->
<g id="node2" class="node">
<title>ApplicationController</title>
<path fill="none" stroke="black" d="M336,-36.5C336,-36.5 482,-36.5 482,-36.5 488,-36.5 494,-42.5 494,-48.5 494,-48.5 494,-148.5 494,-148.5 494,-154.5 488,-160.5 482,-160.5 482,-160.5 336,-160.5 336,-160.5 330,-160.5 324,-154.5 324,-148.5 324,-148.5 324,-48.5 324,-48.5 324,-42.5 330,-36.5 336,-36.5"/>
<text text-anchor="middle" x="409" y="-145.3" font-family="Times,serif" font-size="14.00">ApplicationController</text>
<polyline fill="none" stroke="black" points="324,-137.5 494,-137.5 "/>
<text text-anchor="start" x="332" y="-122.3" font-family="Times,serif" font-size="14.00">authorize_request</text>
<text text-anchor="start" x="332" y="-107.3" font-family="Times,serif" font-size="14.00">not_found</text>
<text text-anchor="start" x="332" y="-92.3" font-family="Times,serif" font-size="14.00">welcome</text>
<polyline fill="none" stroke="black" points="324,-84.5 494,-84.5 "/>
<polyline fill="none" stroke="black" points="324,-60.5 494,-60.5 "/>
</g>
<!-- AuthenticationController -->
<g id="node3" class="node">
<title>AuthenticationController</title>
<path fill="none" stroke="black" d="M12,-0.5C12,-0.5 182,-0.5 182,-0.5 188,-0.5 194,-6.5 194,-12.5 194,-12.5 194,-81.5 194,-81.5 194,-87.5 188,-93.5 182,-93.5 182,-93.5 12,-93.5 12,-93.5 6,-93.5 0,-87.5 0,-81.5 0,-81.5 0,-12.5 0,-12.5 0,-6.5 6,-0.5 12,-0.5"/>
<text text-anchor="middle" x="97" y="-78.3" font-family="Times,serif" font-size="14.00">AuthenticationController</text>
<polyline fill="none" stroke="black" points="0,-70.5 194,-70.5 "/>
<text text-anchor="start" x="8" y="-55.3" font-family="Times,serif" font-size="14.00">login</text>
<polyline fill="none" stroke="black" points="0,-47.5 194,-47.5 "/>
<polyline fill="none" stroke="black" points="0,-23.5 194,-23.5 "/>
<text text-anchor="start" x="8" y="-8.3" font-family="Times,serif" font-size="14.00">login_params</text>
</g>
<!-- CommentsController -->
<g id="node4" class="node">
<title>CommentsController</title>
<path fill="none" stroke="black" d="M246,-234.5C246,-234.5 388,-234.5 388,-234.5 394,-234.5 400,-240.5 400,-246.5 400,-246.5 400,-390.5 400,-390.5 400,-396.5 394,-402.5 388,-402.5 388,-402.5 246,-402.5 246,-402.5 240,-402.5 234,-396.5 234,-390.5 234,-390.5 234,-246.5 234,-246.5 234,-240.5 240,-234.5 246,-234.5"/>
<text text-anchor="middle" x="317" y="-387.3" font-family="Times,serif" font-size="14.00">CommentsController</text>
<polyline fill="none" stroke="black" points="234,-379.5 400,-379.5 "/>
<text text-anchor="start" x="242" y="-364.3" font-family="Times,serif" font-size="14.00">create</text>
<text text-anchor="start" x="242" y="-349.3" font-family="Times,serif" font-size="14.00">destroy</text>
<text text-anchor="start" x="242" y="-334.3" font-family="Times,serif" font-size="14.00">index</text>
<text text-anchor="start" x="242" y="-319.3" font-family="Times,serif" font-size="14.00">show</text>
<text text-anchor="start" x="242" y="-304.3" font-family="Times,serif" font-size="14.00">update</text>
<polyline fill="none" stroke="black" points="234,-296.5 400,-296.5 "/>
<polyline fill="none" stroke="black" points="234,-272.5 400,-272.5 "/>
<text text-anchor="start" x="242" y="-257.3" font-family="Times,serif" font-size="14.00">comment_params</text>
<text text-anchor="start" x="242" y="-242.3" font-family="Times,serif" font-size="14.00">set_comment</text>
</g>
<!-- UsersController -->
<g id="node5" class="node">
<title>UsersController</title>
<path fill="none" stroke="black" d="M84,-288.5C84,-288.5 191,-288.5 191,-288.5 197,-288.5 203,-294.5 203,-300.5 203,-300.5 203,-444.5 203,-444.5 203,-450.5 197,-456.5 191,-456.5 191,-456.5 84,-456.5 84,-456.5 78,-456.5 72,-450.5 72,-444.5 72,-444.5 72,-300.5 72,-300.5 72,-294.5 78,-288.5 84,-288.5"/>
<text text-anchor="middle" x="137.5" y="-441.3" font-family="Times,serif" font-size="14.00">UsersController</text>
<polyline fill="none" stroke="black" points="72,-433.5 203,-433.5 "/>
<text text-anchor="start" x="80" y="-418.3" font-family="Times,serif" font-size="14.00">create</text>
<text text-anchor="start" x="80" y="-403.3" font-family="Times,serif" font-size="14.00">destroy</text>
<text text-anchor="start" x="80" y="-388.3" font-family="Times,serif" font-size="14.00">index</text>
<text text-anchor="start" x="80" y="-373.3" font-family="Times,serif" font-size="14.00">show</text>
<text text-anchor="start" x="80" y="-358.3" font-family="Times,serif" font-size="14.00">update</text>
<polyline fill="none" stroke="black" points="72,-350.5 203,-350.5 "/>
<polyline fill="none" stroke="black" points="72,-326.5 203,-326.5 "/>
<text text-anchor="start" x="80" y="-311.3" font-family="Times,serif" font-size="14.00">find_user</text>
<text text-anchor="start" x="80" y="-296.3" font-family="Times,serif" font-size="14.00">user_params</text>
</g>
</g>
</svg>
