<?xml version="1.0" encoding="UTF-8" standalone="no"?>
<!DOCTYPE svg PUBLIC "-//W3C//DTD SVG 1.1//EN"
 "http://www.w3.org/Graphics/SVG/1.1/DTD/svg11.dtd">
<!-- Generated by graphviz version 2.43.0 (0)
 -->
<!-- Title: models_diagram Pages: 1 -->
<svg width="1131pt" height="319pt"
 viewBox="0.00 0.00 1131.19 319.00" xmlns="http://www.w3.org/2000/svg" xmlns:xlink="http://www.w3.org/1999/xlink">
<g id="graph0" class="graph" transform="scale(1 1) rotate(0) translate(4 315)">
<title>models_diagram</title>
<polygon fill="transparent" stroke="transparent" points="-4,4 -4,-315 1127.19,-315 1127.19,4 -4,4"/>
<!-- _diagram_info -->
<g id="node1" class="node">
<title>_diagram_info</title>
<text text-anchor="start" x="8" y="-296.6" font-family="Times,serif" font-size="13.00">Models diagram</text>
<text text-anchor="start" x="8" y="-282.6" font-family="Times,serif" font-size="13.00">Date: Nov 07 2022 &#45; 01:24</text>
<text text-anchor="start" x="8" y="-268.6" font-family="Times,serif" font-size="13.00">Migration version: 20221107040403</text>
<text text-anchor="start" x="8" y="-254.6" font-family="Times,serif" font-size="13.00">Generated by RailRoady 1.6.0</text>
<text text-anchor="start" x="8" y="-240.6" font-family="Times,serif" font-size="13.00">http://railroady.prestonlee.com</text>
</g>
<!-- ApplicationRecord -->
<g id="node2" class="node">
<title>ApplicationRecord</title>
<ellipse fill="none" stroke="black" cx="372.5" cy="-272" rx="95.58" ry="18"/>
<text text-anchor="middle" x="372.5" y="-268.3" font-family="Times,serif" font-size="14.00">ApplicationRecord</text>
</g>
<!-- Card -->
<g id="node3" class="node">
<title>Card</title>
<ellipse fill="none" stroke="black" cx="747.5" cy="-178" rx="33.29" ry="18"/>
<text text-anchor="middle" x="747.5" y="-174.3" font-family="Times,serif" font-size="14.00">Card</text>
</g>
<!-- User -->
<g id="node13" class="node">
<title>User</title>
<ellipse fill="none" stroke="black" cx="788.5" cy="-105" rx="33.29" ry="18"/>
<text text-anchor="middle" x="788.5" y="-101.3" font-family="Times,serif" font-size="14.00">User</text>
</g>
<!-- Card&#45;&gt;User -->
<g id="edge1" class="edge">
<title>Card&#45;&gt;User</title>
<path fill="none" stroke="#819a11" d="M762.14,-151.64C766.01,-144.95 770.18,-137.73 774.03,-131.05"/>
<polygon fill="#819a11" stroke="#819a11" points="762.01,-151.87 753.11,-158.28 759.51,-156.2 757.01,-160.53 757.01,-160.53 757.01,-160.53 759.51,-156.2 760.91,-162.78 762.01,-151.87 762.01,-151.87"/>
<polygon fill="#819a11" stroke="#819a11" points="774.04,-131.04 782.94,-124.63 776.54,-126.71 779.04,-122.38 779.04,-122.38 779.04,-122.38 776.54,-126.71 775.15,-120.13 774.04,-131.04 774.04,-131.04"/>
</g>
<!-- Cart -->
<g id="node4" class="node">
<title>Cart</title>
<ellipse fill="none" stroke="black" cx="517.5" cy="-272" rx="31.4" ry="18"/>
<text text-anchor="middle" x="517.5" y="-268.3" font-family="Times,serif" font-size="14.00">Cart</text>
</g>
<!-- CartsPlatillo -->
<g id="node5" class="node">
<title>CartsPlatillo</title>
<ellipse fill="none" stroke="black" cx="517.5" cy="-178" rx="68.79" ry="18"/>
<text text-anchor="middle" x="517.5" y="-174.3" font-family="Times,serif" font-size="14.00">CartsPlatillo</text>
</g>
<!-- Cart&#45;&gt;CartsPlatillo -->
<g id="edge3" class="edge">
<title>Cart&#45;&gt;CartsPlatillo</title>
<path fill="none" stroke="#03a842" d="M517.5,-243.69C517.5,-231.92 517.5,-218.17 517.5,-206.39"/>
<polygon fill="#03a842" stroke="#03a842" points="517.5,-243.7 513,-253.7 517.5,-248.7 517.5,-253.7 517.5,-253.7 517.5,-253.7 517.5,-248.7 522,-253.7 517.5,-243.7 517.5,-243.7"/>
<polygon fill="#03a842" stroke="#03a842" points="517.5,-206.23 522,-196.23 517.5,-201.23 517.5,-196.23 517.5,-196.23 517.5,-196.23 517.5,-201.23 513,-196.23 517.5,-206.23 517.5,-206.23"/>
</g>
<!-- Platillo -->
<g id="node9" class="node">
<title>Platillo</title>
<ellipse fill="none" stroke="black" cx="485.5" cy="-105" rx="43.59" ry="18"/>
<text text-anchor="middle" x="485.5" y="-101.3" font-family="Times,serif" font-size="14.00">Platillo</text>
</g>
<!-- Cart&#45;&gt;Platillo -->
<g id="edge4" class="edge">
<title>Cart&#45;&gt;Platillo</title>
<path fill="none" stroke="#5bd537" d="M494.46,-249.05C471.59,-227.24 439.88,-196.88 439.5,-196 433.23,-181.28 433.97,-175.01 439.5,-160 443.78,-148.38 451.79,-137.56 459.95,-128.7"/>
<polygon fill="#5bd537" stroke="#5bd537" points="494.58,-249.17 498.71,-259.33 498.2,-252.62 501.82,-256.07 501.82,-256.07 501.82,-256.07 498.2,-252.62 504.93,-252.81 494.58,-249.17 494.58,-249.17"/>
<polygon fill="#5bd537" stroke="#5bd537" points="460.06,-128.59 470.27,-124.6 463.56,-125.02 467.06,-121.45 467.06,-121.45 467.06,-121.45 463.56,-125.02 463.85,-118.3 460.06,-128.59 460.06,-128.59"/>
</g>
<!-- Cart&#45;&gt;User -->
<g id="edge2" class="edge">
<title>Cart&#45;&gt;User</title>
<path fill="none" stroke="#9acac3" d="M536.97,-248.05C542.99,-242.29 550.01,-236.7 557.5,-233 651.11,-186.74 721.73,-275.43 789.5,-196 804.18,-178.79 801.94,-152.26 797.22,-132.46"/>
<polygon fill="#9acac3" stroke="#9acac3" points="536.9,-248.12 526.71,-252.18 533.42,-251.71 529.94,-255.31 529.94,-255.31 529.94,-255.31 533.42,-251.71 533.18,-258.44 536.9,-248.12 536.9,-248.12"/>
<polygon fill="#9acac3" stroke="#9acac3" points="797.22,-132.46 798.94,-121.63 795.91,-127.63 794.6,-122.8 794.6,-122.8 794.6,-122.8 795.91,-127.63 790.26,-123.98 797.22,-132.46 797.22,-132.46"/>
</g>
<!-- CartsPlatillo&#45;&gt;Platillo -->
<g id="edge5" class="edge">
<title>CartsPlatillo&#45;&gt;Platillo</title>
<path fill="none" stroke="#95fecc" d="M505.62,-150.63C502.95,-144.72 500.12,-138.44 497.46,-132.53"/>
<polygon fill="#95fecc" stroke="#95fecc" points="505.64,-150.7 505.65,-161.66 507.7,-155.25 509.75,-159.81 509.75,-159.81 509.75,-159.81 507.7,-155.25 513.86,-157.96 505.64,-150.7 505.64,-150.7"/>
<polygon fill="#95fecc" stroke="#95fecc" points="497.28,-132.15 497.28,-121.18 495.23,-127.59 493.17,-123.03 493.17,-123.03 493.17,-123.03 495.23,-127.59 489.07,-124.88 497.28,-132.15 497.28,-132.15"/>
</g>
<!-- Comment -->
<g id="node6" class="node">
<title>Comment</title>
<ellipse fill="none" stroke="black" cx="622.5" cy="-272" rx="55.79" ry="18"/>
<text text-anchor="middle" x="622.5" y="-268.3" font-family="Times,serif" font-size="14.00">Comment</text>
</g>
<!-- Factura -->
<g id="node7" class="node">
<title>Factura</title>
<ellipse fill="none" stroke="black" cx="650.5" cy="-178" rx="46.29" ry="18"/>
<text text-anchor="middle" x="650.5" y="-174.3" font-family="Times,serif" font-size="14.00">Factura</text>
</g>
<!-- Factura&#45;&gt;Platillo -->
<g id="edge8" class="edge">
<title>Factura&#45;&gt;Platillo</title>
<path fill="none" stroke="#5c2241" d="M611.38,-160.16C584.93,-148.78 550.17,-133.83 523.88,-122.51"/>
<polygon fill="#5c2241" stroke="#5c2241" points="611.43,-160.19 618.84,-168.28 616.03,-162.17 620.62,-164.14 620.62,-164.14 620.62,-164.14 616.03,-162.17 622.4,-160.01 611.43,-160.19 611.43,-160.19"/>
<polygon fill="#5c2241" stroke="#5c2241" points="523.79,-122.48 516.38,-114.39 519.2,-120.5 514.6,-118.52 514.6,-118.52 514.6,-118.52 519.2,-120.5 512.83,-122.66 523.79,-122.48 523.79,-122.48"/>
</g>
<!-- PlatillosHasFactura -->
<g id="node10" class="node">
<title>PlatillosHasFactura</title>
<ellipse fill="none" stroke="black" cx="507.5" cy="-18" rx="102.08" ry="18"/>
<text text-anchor="middle" x="507.5" y="-14.3" font-family="Times,serif" font-size="14.00">PlatillosHasFactura</text>
</g>
<!-- Factura&#45;&gt;PlatillosHasFactura -->
<g id="edge7" class="edge">
<title>Factura&#45;&gt;PlatillosHasFactura</title>
<path fill="none" stroke="#52472d" d="M655.43,-149.88C658.77,-122.42 659.12,-80.34 636.5,-54 627.77,-43.83 616.4,-36.47 604.04,-31.16"/>
<polygon fill="#52472d" stroke="#52472d" points="655.4,-150.08 649.53,-159.34 654.69,-155.03 653.99,-159.98 653.99,-159.98 653.99,-159.98 654.69,-155.03 658.44,-160.61 655.4,-150.08 655.4,-150.08"/>
<polygon fill="#52472d" stroke="#52472d" points="603.77,-31.06 596.03,-23.29 599.1,-29.28 594.43,-27.5 594.43,-27.5 594.43,-27.5 599.1,-29.28 592.82,-31.7 603.77,-31.06 603.77,-31.06"/>
</g>
<!-- Factura&#45;&gt;User -->
<g id="edge6" class="edge">
<title>Factura&#45;&gt;User</title>
<path fill="none" stroke="#fcd1a7" d="M686.57,-158.44C708.14,-147.34 735.33,-133.36 756.2,-122.62"/>
<polygon fill="#fcd1a7" stroke="#fcd1a7" points="686.33,-158.57 675.38,-159.14 681.88,-160.85 677.44,-163.14 677.44,-163.14 677.44,-163.14 681.88,-160.85 679.49,-167.14 686.33,-158.57 686.33,-158.57"/>
<polygon fill="#fcd1a7" stroke="#fcd1a7" points="756.41,-122.51 767.36,-121.94 760.85,-120.22 765.3,-117.94 765.3,-117.94 765.3,-117.94 760.85,-120.22 763.24,-113.93 756.41,-122.51 756.41,-122.51"/>
</g>
<!-- Ingredient -->
<g id="node8" class="node">
<title>Ingredient</title>
<ellipse fill="none" stroke="black" cx="315.5" cy="-178" rx="59.59" ry="18"/>
<text text-anchor="middle" x="315.5" y="-174.3" font-family="Times,serif" font-size="14.00">Ingredient</text>
</g>
<!-- Ingredient&#45;&gt;Platillo -->
<g id="edge10" class="edge">
<title>Ingredient&#45;&gt;Platillo</title>
<path fill="none" stroke="#62833f" d="M358.61,-159C385.73,-147.67 420.44,-133.17 446.7,-122.21"/>
<polygon fill="#62833f" stroke="#62833f" points="358.31,-159.12 347.35,-158.82 353.7,-161.05 349.09,-162.97 349.09,-162.97 349.09,-162.97 353.7,-161.05 350.82,-167.13 358.31,-159.12 358.31,-159.12"/>
<polygon fill="#62833f" stroke="#62833f" points="446.73,-122.19 457.69,-122.49 451.34,-120.27 455.96,-118.34 455.96,-118.34 455.96,-118.34 451.34,-120.27 454.22,-114.19 446.73,-122.19 446.73,-122.19"/>
</g>
<!-- PlatillosHasIngredient -->
<g id="node11" class="node">
<title>PlatillosHasIngredient</title>
<ellipse fill="none" stroke="black" cx="272.5" cy="-18" rx="115.08" ry="18"/>
<text text-anchor="middle" x="272.5" y="-14.3" font-family="Times,serif" font-size="14.00">PlatillosHasIngredient</text>
</g>
<!-- Ingredient&#45;&gt;PlatillosHasIngredient -->
<g id="edge9" class="edge">
<title>Ingredient&#45;&gt;PlatillosHasIngredient</title>
<path fill="none" stroke="#31aac2" d="M308.16,-150.02C300.26,-121 287.77,-75.12 279.87,-46.07"/>
<polygon fill="#31aac2" stroke="#31aac2" points="308.19,-150.14 306.47,-160.97 309.5,-154.97 310.82,-159.79 310.82,-159.79 310.82,-159.79 309.5,-154.97 315.16,-158.61 308.19,-150.14 308.19,-150.14"/>
<polygon fill="#31aac2" stroke="#31aac2" points="279.8,-45.84 281.52,-35.01 278.49,-41.01 277.18,-36.19 277.18,-36.19 277.18,-36.19 278.49,-41.01 272.84,-37.37 279.8,-45.84 279.8,-45.84"/>
</g>
<!-- Platillo&#45;&gt;PlatillosHasFactura -->
<g id="edge14" class="edge">
<title>Platillo&#45;&gt;PlatillosHasFactura</title>
<path fill="none" stroke="#04fdaf" d="M481.11,-76.84C480.78,-69.31 481.26,-61.22 483.5,-54 484.48,-50.83 485.86,-47.7 487.46,-44.68"/>
<polygon fill="#04fdaf" stroke="#04fdaf" points="481.13,-77.01 477.55,-87.37 481.58,-81.99 482.03,-86.97 482.03,-86.97 482.03,-86.97 481.58,-81.99 486.51,-86.56 481.13,-77.01 481.13,-77.01"/>
<polygon fill="#04fdaf" stroke="#04fdaf" points="487.53,-44.58 496.62,-38.44 490.16,-40.33 492.79,-36.07 492.79,-36.07 492.79,-36.07 490.16,-40.33 488.96,-33.71 487.53,-44.58 487.53,-44.58"/>
</g>
<!-- Platillo&#45;&gt;PlatillosHasIngredient -->
<g id="edge13" class="edge">
<title>Platillo&#45;&gt;PlatillosHasIngredient</title>
<path fill="none" stroke="#1d55d6" d="M445.25,-87.94C410.3,-73.99 359.56,-53.74 322.11,-38.8"/>
<polygon fill="#1d55d6" stroke="#1d55d6" points="445.69,-88.12 453.31,-96 450.34,-89.97 454.98,-91.82 454.98,-91.82 454.98,-91.82 450.34,-89.97 456.65,-87.64 445.69,-88.12 445.69,-88.12"/>
<polygon fill="#1d55d6" stroke="#1d55d6" points="321.69,-38.63 314.07,-30.74 317.05,-36.78 312.4,-34.92 312.4,-34.92 312.4,-34.92 317.05,-36.78 310.74,-39.1 321.69,-38.63 321.69,-38.63"/>
</g>
<!-- ActiveStorage::Attachment -->
<g id="node14" class="node">
<title>ActiveStorage::Attachment</title>
<ellipse fill="none" stroke="black" cx="763.5" cy="-18" rx="135.68" ry="18"/>
<text text-anchor="middle" x="763.5" y="-14.3" font-family="Times,serif" font-size="14.00">ActiveStorage::Attachment</text>
</g>
<!-- Platillo&#45;&gt;ActiveStorage::Attachment -->
<g id="edge11" class="edge">
<title>Platillo&#45;&gt;ActiveStorage::Attachment</title>
<path fill="none" stroke="#b5a366" d="M501.31,-78.97C508.47,-69.66 517.76,-59.93 528.5,-54 540.06,-47.62 598.86,-38.86 654.75,-31.71"/>
<polygon fill="#b5a366" stroke="#b5a366" points="501.17,-79.15 491.69,-84.65 498.26,-83.21 495.34,-87.28 495.34,-87.28 495.34,-87.28 498.26,-83.21 499,-89.9 501.17,-79.15 501.17,-79.15"/>
<polygon fill="#b5a366" stroke="#b5a366" points="654.85,-31.69 665.34,-34.9 659.81,-31.07 664.77,-30.44 664.77,-30.44 664.77,-30.44 659.81,-31.07 664.21,-25.97 654.85,-31.69 654.85,-31.69"/>
<text text-anchor="middle" x="595" y="-57.8" font-family="Times,serif" font-size="14.00">image_attachment</text>
</g>
<!-- ActiveStorage::Blob -->
<g id="node15" class="node">
<title>ActiveStorage::Blob</title>
<ellipse fill="none" stroke="black" cx="1020.5" cy="-18" rx="102.88" ry="18"/>
<text text-anchor="middle" x="1020.5" y="-14.3" font-family="Times,serif" font-size="14.00">ActiveStorage::Blob</text>
</g>
<!-- Platillo&#45;&gt;ActiveStorage::Blob -->
<g id="edge12" class="edge">
<title>Platillo&#45;&gt;ActiveStorage::Blob</title>
<path fill="none" stroke="#f1f97a" d="M537.15,-97.83C572.81,-92.58 620.93,-83.54 661.5,-69 674.79,-64.24 675.96,-58 689.5,-54 783.17,-26.36 811.5,-47.33 908.5,-36 917.92,-34.9 927.77,-33.61 937.55,-32.24"/>
<polygon fill="#f1f97a" stroke="#f1f97a" points="536.87,-97.87 526.34,-94.82 531.92,-98.57 526.97,-99.27 526.97,-99.27 526.97,-99.27 531.92,-98.57 527.6,-103.73 536.87,-97.87 536.87,-97.87"/>
<polygon fill="#f1f97a" stroke="#f1f97a" points="937.8,-32.21 948.34,-35.25 942.75,-31.5 947.7,-30.79 947.7,-30.79 947.7,-30.79 942.75,-31.5 947.06,-26.34 937.8,-32.21 937.8,-32.21"/>
<text text-anchor="middle" x="730.5" y="-57.8" font-family="Times,serif" font-size="14.00">image_blob</text>
</g>
<!-- Role -->
<g id="node12" class="node">
<title>Role</title>
<ellipse fill="none" stroke="black" cx="880.5" cy="-178" rx="31.4" ry="18"/>
<text text-anchor="middle" x="880.5" y="-174.3" font-family="Times,serif" font-size="14.00">Role</text>
</g>
<!-- Role&#45;&gt;User -->
<g id="edge15" class="edge">
<title>Role&#45;&gt;User</title>
<path fill="none" stroke="#5c6815" d="M854.34,-156.81C842.05,-147.32 827.42,-136.04 815.08,-126.51"/>
<polygon fill="#5c6815" stroke="#5c6815" points="854.41,-156.86 859.57,-166.54 858.37,-159.92 862.32,-162.97 862.32,-162.97 862.32,-162.97 858.37,-159.92 865.07,-159.41 854.41,-156.86 854.41,-156.86"/>
<polygon fill="#5c6815" stroke="#5c6815" points="814.87,-126.35 809.7,-116.68 810.91,-123.3 806.95,-120.24 806.95,-120.24 806.95,-120.24 810.91,-123.3 804.2,-123.8 814.87,-126.35 814.87,-126.35"/>
</g>
<!-- Resource -->
<g id="node16" class="node">
<title>Resource</title>
<ellipse fill="none" stroke="black" cx="893.5" cy="-105" rx="53.89" ry="18"/>
<text text-anchor="middle" x="893.5" y="-101.3" font-family="Times,serif" font-size="14.00">Resource</text>
</g>
<!-- Role&#45;&gt;Resource -->
<g id="edge16" class="edge">
<title>Role&#45;&gt;Resource</title>
<path fill="none" stroke="#5188d6" d="M885.49,-149.75C886.49,-144.28 887.55,-138.52 888.55,-133.05"/>
<polygon fill="#5188d6" stroke="#5188d6" points="885.45,-149.98 879.22,-159 884.55,-154.89 883.65,-159.81 883.65,-159.81 883.65,-159.81 884.55,-154.89 888.07,-160.62 885.45,-149.98 885.45,-149.98"/>
<polygon fill="#5188d6" stroke="#5188d6" points="888.58,-132.87 894.81,-123.84 889.48,-127.95 890.38,-123.03 890.38,-123.03 890.38,-123.03 889.48,-127.95 885.96,-122.22 888.58,-132.87 888.58,-132.87"/>
</g>
<!-- User&#45;&gt;ActiveStorage::Attachment -->
<g id="edge17" class="edge">
<title>User&#45;&gt;ActiveStorage::Attachment</title>
<path fill="none" stroke="#2855e4" d="M780.6,-77.13C777.67,-67.18 774.36,-55.91 771.43,-45.96"/>
<polygon fill="#2855e4" stroke="#2855e4" points="780.62,-77.21 779.12,-88.07 782.03,-82 783.44,-86.8 783.44,-86.8 783.44,-86.8 782.03,-82 787.76,-85.53 780.62,-77.21 780.62,-77.21"/>
<polygon fill="#2855e4" stroke="#2855e4" points="771.37,-45.77 772.87,-34.91 769.96,-40.97 768.55,-36.18 768.55,-36.18 768.55,-36.18 769.96,-40.97 764.23,-37.45 771.37,-45.77 771.37,-45.77"/>
<text text-anchor="middle" x="845" y="-57.8" font-family="Times,serif" font-size="14.00">avatar_attachment</text>
</g>
<!-- User&#45;&gt;ActiveStorage::Blob -->
<g id="edge18" class="edge">
<title>User&#45;&gt;ActiveStorage::Blob</title>
<path fill="none" stroke="#ad7cdd" d="M823.08,-89.44C825.57,-88.57 828.06,-87.74 830.5,-87 867.86,-75.63 879.52,-81.55 916.5,-69 939,-61.36 962.97,-50.07 982.22,-40.15"/>
<polygon fill="#ad7cdd" stroke="#ad7cdd" points="822.92,-89.5 811.98,-88.8 818.24,-91.26 813.56,-93.01 813.56,-93.01 813.56,-93.01 818.24,-91.26 815.14,-97.22 822.92,-89.5 822.92,-89.5"/>
<polygon fill="#ad7cdd" stroke="#ad7cdd" points="982.41,-40.05 993.36,-39.4 986.84,-37.73 991.27,-35.41 991.27,-35.41 991.27,-35.41 986.84,-37.73 989.18,-31.43 982.41,-40.05 982.41,-40.05"/>
<text text-anchor="middle" x="993.5" y="-57.8" font-family="Times,serif" font-size="14.00">avatar_blob</text>
</g>
</g>
</svg>
