<?xml version="1.0" encoding="UTF-8" standalone="no"?>
<!DOCTYPE svg PUBLIC "-//W3C//DTD SVG 1.1//EN"
 "http://www.w3.org/Graphics/SVG/1.1/DTD/svg11.dtd">
<!-- Generated by graphviz version 2.43.0 (0)
 -->
<!-- Title: models_diagram Pages: 1 -->
<svg width="1927pt" height="711pt"
 viewBox="0.00 0.00 1927.00 711.00" xmlns="http://www.w3.org/2000/svg" xmlns:xlink="http://www.w3.org/1999/xlink">
<g id="graph0" class="graph" transform="scale(1 1) rotate(0) translate(4 707)">
<title>models_diagram</title>
<polygon fill="transparent" stroke="transparent" points="-4,4 -4,-707 1923,-707 1923,4 -4,4"/>
<!-- _diagram_info -->
<g id="node1" class="node">
<title>_diagram_info</title>
<text text-anchor="start" x="8" y="-651.6" font-family="Times,serif" font-size="13.00">Models diagram</text>
<text text-anchor="start" x="8" y="-637.6" font-family="Times,serif" font-size="13.00">Date: Nov 07 2022 &#45; 01:24</text>
<text text-anchor="start" x="8" y="-623.6" font-family="Times,serif" font-size="13.00">Migration version: 20221107040403</text>
<text text-anchor="start" x="8" y="-609.6" font-family="Times,serif" font-size="13.00">Generated by RailRoady 1.6.0</text>
<text text-anchor="start" x="8" y="-595.6" font-family="Times,serif" font-size="13.00">http://railroady.prestonlee.com</text>
</g>
<!-- ApplicationRecord -->
<g id="node2" class="node">
<title>ApplicationRecord</title>
<ellipse fill="none" stroke="black" cx="372.5" cy="-627" rx="95.58" ry="18"/>
<text text-anchor="middle" x="372.5" y="-623.3" font-family="Times,serif" font-size="14.00">ApplicationRecord</text>
</g>
<!-- Card -->
<g id="node3" class="node">
<title>Card</title>
<path fill="none" stroke="black" d="M1204,-362.5C1204,-362.5 1515,-362.5 1515,-362.5 1521,-362.5 1527,-368.5 1527,-374.5 1527,-374.5 1527,-501.5 1527,-501.5 1527,-507.5 1521,-513.5 1515,-513.5 1515,-513.5 1204,-513.5 1204,-513.5 1198,-513.5 1192,-507.5 1192,-501.5 1192,-501.5 1192,-374.5 1192,-374.5 1192,-368.5 1198,-362.5 1204,-362.5"/>
<text text-anchor="middle" x="1359.5" y="-498.3" font-family="Times,serif" font-size="14.00">Card</text>
<polyline fill="none" stroke="black" points="1192,-490.5 1527,-490.5 "/>
<text text-anchor="start" x="1200" y="-475.3" font-family="Times,serif" font-size="14.00">id :bigint</text>
<text text-anchor="start" x="1200" y="-460.3" font-family="Times,serif" font-size="14.00">card_number :character varying</text>
<text text-anchor="start" x="1200" y="-445.3" font-family="Times,serif" font-size="14.00">cvc :character varying</text>
<text text-anchor="start" x="1200" y="-430.3" font-family="Times,serif" font-size="14.00">exp_month :character varying</text>
<text text-anchor="start" x="1200" y="-415.3" font-family="Times,serif" font-size="14.00">exp_year :character varying</text>
<text text-anchor="start" x="1200" y="-400.3" font-family="Times,serif" font-size="14.00">user_id :bigint</text>
<text text-anchor="start" x="1200" y="-385.3" font-family="Times,serif" font-size="14.00">created_at :timestamp(6) without time zone</text>
<text text-anchor="start" x="1200" y="-370.3" font-family="Times,serif" font-size="14.00">updated_at :timestamp(6) without time zone</text>
</g>
<!-- User -->
<g id="node13" class="node">
<title>User</title>
<path fill="none" stroke="black" d="M1140,-158.5C1140,-158.5 1451,-158.5 1451,-158.5 1457,-158.5 1463,-164.5 1463,-170.5 1463,-170.5 1463,-312.5 1463,-312.5 1463,-318.5 1457,-324.5 1451,-324.5 1451,-324.5 1140,-324.5 1140,-324.5 1134,-324.5 1128,-318.5 1128,-312.5 1128,-312.5 1128,-170.5 1128,-170.5 1128,-164.5 1134,-158.5 1140,-158.5"/>
<text text-anchor="middle" x="1295.5" y="-309.3" font-family="Times,serif" font-size="14.00">User</text>
<polyline fill="none" stroke="black" points="1128,-301.5 1463,-301.5 "/>
<text text-anchor="start" x="1136" y="-286.3" font-family="Times,serif" font-size="14.00">id :bigint</text>
<text text-anchor="start" x="1136" y="-271.3" font-family="Times,serif" font-size="14.00">name :character varying</text>
<text text-anchor="start" x="1136" y="-256.3" font-family="Times,serif" font-size="14.00">lastname :character varying</text>
<text text-anchor="start" x="1136" y="-241.3" font-family="Times,serif" font-size="14.00">cedula :character varying</text>
<text text-anchor="start" x="1136" y="-226.3" font-family="Times,serif" font-size="14.00">email :character varying</text>
<text text-anchor="start" x="1136" y="-211.3" font-family="Times,serif" font-size="14.00">password_digest :character varying</text>
<text text-anchor="start" x="1136" y="-196.3" font-family="Times,serif" font-size="14.00">location :character varying</text>
<text text-anchor="start" x="1136" y="-181.3" font-family="Times,serif" font-size="14.00">created_at :timestamp(6) without time zone</text>
<text text-anchor="start" x="1136" y="-166.3" font-family="Times,serif" font-size="14.00">updated_at :timestamp(6) without time zone</text>
</g>
<!-- Card&#45;&gt;User -->
<g id="edge1" class="edge">
<title>Card&#45;&gt;User</title>
<path fill="none" stroke="#927605" d="M1331.77,-352.74C1329.77,-346.64 1327.74,-340.47 1325.72,-334.33"/>
<polygon fill="#927605" stroke="#927605" points="1331.81,-352.86 1330.66,-363.76 1333.38,-357.61 1334.94,-362.36 1334.94,-362.36 1334.94,-362.36 1333.38,-357.61 1339.21,-360.95 1331.81,-352.86 1331.81,-352.86"/>
<polygon fill="#927605" stroke="#927605" points="1325.68,-334.21 1326.83,-323.31 1324.11,-329.46 1322.55,-324.71 1322.55,-324.71 1322.55,-324.71 1324.11,-329.46 1318.28,-326.12 1325.68,-334.21 1325.68,-334.21"/>
</g>
<!-- Cart -->
<g id="node4" class="node">
<title>Cart</title>
<path fill="none" stroke="black" d="M498,-581.5C498,-581.5 809,-581.5 809,-581.5 815,-581.5 821,-587.5 821,-593.5 821,-593.5 821,-660.5 821,-660.5 821,-666.5 815,-672.5 809,-672.5 809,-672.5 498,-672.5 498,-672.5 492,-672.5 486,-666.5 486,-660.5 486,-660.5 486,-593.5 486,-593.5 486,-587.5 492,-581.5 498,-581.5"/>
<text text-anchor="middle" x="653.5" y="-657.3" font-family="Times,serif" font-size="14.00">Cart</text>
<polyline fill="none" stroke="black" points="486,-649.5 821,-649.5 "/>
<text text-anchor="start" x="494" y="-634.3" font-family="Times,serif" font-size="14.00">id :bigint</text>
<text text-anchor="start" x="494" y="-619.3" font-family="Times,serif" font-size="14.00">user_id :bigint</text>
<text text-anchor="start" x="494" y="-604.3" font-family="Times,serif" font-size="14.00">created_at :timestamp(6) without time zone</text>
<text text-anchor="start" x="494" y="-589.3" font-family="Times,serif" font-size="14.00">updated_at :timestamp(6) without time zone</text>
</g>
<!-- CartsPlatillo -->
<g id="node5" class="node">
<title>CartsPlatillo</title>
<path fill="none" stroke="black" d="M498,-385C498,-385 809,-385 809,-385 815,-385 821,-391 821,-397 821,-397 821,-479 821,-479 821,-485 815,-491 809,-491 809,-491 498,-491 498,-491 492,-491 486,-485 486,-479 486,-479 486,-397 486,-397 486,-391 492,-385 498,-385"/>
<text text-anchor="middle" x="653.5" y="-475.8" font-family="Times,serif" font-size="14.00">CartsPlatillo</text>
<polyline fill="none" stroke="black" points="486,-468 821,-468 "/>
<text text-anchor="start" x="494" y="-452.8" font-family="Times,serif" font-size="14.00">id :bigint</text>
<text text-anchor="start" x="494" y="-437.8" font-family="Times,serif" font-size="14.00">cart_id :bigint</text>
<text text-anchor="start" x="494" y="-422.8" font-family="Times,serif" font-size="14.00">platillo_id :bigint</text>
<text text-anchor="start" x="494" y="-407.8" font-family="Times,serif" font-size="14.00">created_at :timestamp(6) without time zone</text>
<text text-anchor="start" x="494" y="-392.8" font-family="Times,serif" font-size="14.00">updated_at :timestamp(6) without time zone</text>
</g>
<!-- Cart&#45;&gt;CartsPlatillo -->
<g id="edge3" class="edge">
<title>Cart&#45;&gt;CartsPlatillo</title>
<path fill="none" stroke="#fce674" d="M653.5,-571.05C653.5,-549.13 653.5,-523.79 653.5,-501.21"/>
<polygon fill="#fce674" stroke="#fce674" points="653.5,-571.21 649,-581.21 653.5,-576.21 653.5,-581.21 653.5,-581.21 653.5,-581.21 653.5,-576.21 658,-581.21 653.5,-571.21 653.5,-571.21"/>
<polygon fill="#fce674" stroke="#fce674" points="653.5,-501.04 658,-491.04 653.5,-496.04 653.5,-491.04 653.5,-491.04 653.5,-491.04 653.5,-496.04 649,-491.04 653.5,-501.04 653.5,-501.04"/>
</g>
<!-- Platillo -->
<g id="node9" class="node">
<title>Platillo</title>
<path fill="none" stroke="black" d="M500,-181C500,-181 811,-181 811,-181 817,-181 823,-187 823,-193 823,-193 823,-290 823,-290 823,-296 817,-302 811,-302 811,-302 500,-302 500,-302 494,-302 488,-296 488,-290 488,-290 488,-193 488,-193 488,-187 494,-181 500,-181"/>
<text text-anchor="middle" x="655.5" y="-286.8" font-family="Times,serif" font-size="14.00">Platillo</text>
<polyline fill="none" stroke="black" points="488,-279 823,-279 "/>
<text text-anchor="start" x="496" y="-263.8" font-family="Times,serif" font-size="14.00">id :bigint</text>
<text text-anchor="start" x="496" y="-248.8" font-family="Times,serif" font-size="14.00">name :character varying</text>
<text text-anchor="start" x="496" y="-233.8" font-family="Times,serif" font-size="14.00">price :double precision</text>
<text text-anchor="start" x="496" y="-218.8" font-family="Times,serif" font-size="14.00">type :character varying</text>
<text text-anchor="start" x="496" y="-203.8" font-family="Times,serif" font-size="14.00">created_at :timestamp(6) without time zone</text>
<text text-anchor="start" x="496" y="-188.8" font-family="Times,serif" font-size="14.00">updated_at :timestamp(6) without time zone</text>
</g>
<!-- Cart&#45;&gt;Platillo -->
<g id="edge4" class="edge">
<title>Cart&#45;&gt;Platillo</title>
<path fill="none" stroke="#eefda6" d="M537.1,-575.88C512.86,-559.78 490.46,-539.36 476.5,-514 443.92,-454.82 444.64,-421.57 476.5,-362 487.6,-341.24 504.08,-323.46 522.61,-308.46"/>
<polygon fill="#eefda6" stroke="#eefda6" points="537.3,-576.01 543.31,-585.19 541.52,-578.7 545.73,-581.39 545.73,-581.39 545.73,-581.39 541.52,-578.7 548.16,-577.6 537.3,-576.01 537.3,-576.01"/>
<polygon fill="#eefda6" stroke="#eefda6" points="522.78,-308.33 533.44,-305.75 526.73,-305.26 530.67,-302.19 530.67,-302.19 530.67,-302.19 526.73,-305.26 527.91,-298.64 522.78,-308.33 522.78,-308.33"/>
</g>
<!-- Cart&#45;&gt;User -->
<g id="edge2" class="edge">
<title>Cart&#45;&gt;User</title>
<path fill="none" stroke="#eb23a5" d="M750.92,-577.34C775.96,-566.84 803.25,-557.08 829.5,-551 906.03,-533.28 1481.43,-570.98 1535.5,-514 1582,-465 1571.06,-419.44 1535.5,-362 1519.87,-336.76 1497.13,-316.67 1471.79,-300.75"/>
<polygon fill="#eb23a5" stroke="#eb23a5" points="750.64,-577.46 739.68,-577.25 746.04,-579.42 741.45,-581.39 741.45,-581.39 741.45,-581.39 746.04,-579.42 743.21,-585.53 750.64,-577.46 750.64,-577.46"/>
<polygon fill="#eb23a5" stroke="#eb23a5" points="1471.66,-300.67 1465.43,-291.65 1467.38,-298.09 1463.1,-295.5 1463.1,-295.5 1463.1,-295.5 1467.38,-298.09 1460.78,-299.36 1471.66,-300.67 1471.66,-300.67"/>
</g>
<!-- CartsPlatillo&#45;&gt;Platillo -->
<g id="edge5" class="edge">
<title>CartsPlatillo&#45;&gt;Platillo</title>
<path fill="none" stroke="#2db339" d="M654.14,-374.8C654.34,-354.95 654.57,-332.86 654.78,-312.49"/>
<polygon fill="#2db339" stroke="#2db339" points="654.14,-374.88 649.54,-384.83 654.09,-379.88 654.04,-384.88 654.04,-384.88 654.04,-384.88 654.09,-379.88 658.54,-384.92 654.14,-374.88 654.14,-374.88"/>
<polygon fill="#2db339" stroke="#2db339" points="654.78,-312.34 659.38,-302.39 654.83,-307.34 654.88,-302.34 654.88,-302.34 654.88,-302.34 654.83,-307.34 650.38,-302.29 654.78,-312.34 654.78,-312.34"/>
</g>
<!-- Comment -->
<g id="node6" class="node">
<title>Comment</title>
<path fill="none" stroke="black" d="M851,-551.5C851,-551.5 1162,-551.5 1162,-551.5 1168,-551.5 1174,-557.5 1174,-563.5 1174,-563.5 1174,-690.5 1174,-690.5 1174,-696.5 1168,-702.5 1162,-702.5 1162,-702.5 851,-702.5 851,-702.5 845,-702.5 839,-696.5 839,-690.5 839,-690.5 839,-563.5 839,-563.5 839,-557.5 845,-551.5 851,-551.5"/>
<text text-anchor="middle" x="1006.5" y="-687.3" font-family="Times,serif" font-size="14.00">Comment</text>
<polyline fill="none" stroke="black" points="839,-679.5 1174,-679.5 "/>
<text text-anchor="start" x="847" y="-664.3" font-family="Times,serif" font-size="14.00">id :bigint</text>
<text text-anchor="start" x="847" y="-649.3" font-family="Times,serif" font-size="14.00">name :character varying</text>
<text text-anchor="start" x="847" y="-634.3" font-family="Times,serif" font-size="14.00">lastname :character varying</text>
<text text-anchor="start" x="847" y="-619.3" font-family="Times,serif" font-size="14.00">email :character varying</text>
<text text-anchor="start" x="847" y="-604.3" font-family="Times,serif" font-size="14.00">phone :character varying</text>
<text text-anchor="start" x="847" y="-589.3" font-family="Times,serif" font-size="14.00">message :character varying</text>
<text text-anchor="start" x="847" y="-574.3" font-family="Times,serif" font-size="14.00">created_at :timestamp(6) without time zone</text>
<text text-anchor="start" x="847" y="-559.3" font-family="Times,serif" font-size="14.00">updated_at :timestamp(6) without time zone</text>
</g>
<!-- Factura -->
<g id="node7" class="node">
<title>Factura</title>
<path fill="none" stroke="black" d="M851,-377.5C851,-377.5 1162,-377.5 1162,-377.5 1168,-377.5 1174,-383.5 1174,-389.5 1174,-389.5 1174,-486.5 1174,-486.5 1174,-492.5 1168,-498.5 1162,-498.5 1162,-498.5 851,-498.5 851,-498.5 845,-498.5 839,-492.5 839,-486.5 839,-486.5 839,-389.5 839,-389.5 839,-383.5 845,-377.5 851,-377.5"/>
<text text-anchor="middle" x="1006.5" y="-483.3" font-family="Times,serif" font-size="14.00">Factura</text>
<polyline fill="none" stroke="black" points="839,-475.5 1174,-475.5 "/>
<text text-anchor="start" x="847" y="-460.3" font-family="Times,serif" font-size="14.00">id :bigint</text>
<text text-anchor="start" x="847" y="-445.3" font-family="Times,serif" font-size="14.00">price :double precision</text>
<text text-anchor="start" x="847" y="-430.3" font-family="Times,serif" font-size="14.00">tipo :character varying</text>
<text text-anchor="start" x="847" y="-415.3" font-family="Times,serif" font-size="14.00">user_id :bigint</text>
<text text-anchor="start" x="847" y="-400.3" font-family="Times,serif" font-size="14.00">created_at :timestamp(6) without time zone</text>
<text text-anchor="start" x="847" y="-385.3" font-family="Times,serif" font-size="14.00">updated_at :timestamp(6) without time zone</text>
</g>
<!-- Factura&#45;&gt;Platillo -->
<g id="edge8" class="edge">
<title>Factura&#45;&gt;Platillo</title>
<path fill="none" stroke="#9bd9cc" d="M889.87,-372.37C851.97,-351.37 809.92,-328.07 772.02,-307.07"/>
<polygon fill="#9bd9cc" stroke="#9bd9cc" points="890.06,-372.47 896.62,-381.26 894.43,-374.9 898.8,-377.32 898.8,-377.32 898.8,-377.32 894.43,-374.9 900.98,-373.39 890.06,-372.47 890.06,-372.47"/>
<polygon fill="#9bd9cc" stroke="#9bd9cc" points="771.74,-306.91 765.17,-298.13 767.37,-304.49 762.99,-302.07 762.99,-302.07 762.99,-302.07 767.37,-304.49 760.81,-306 771.74,-306.91 771.74,-306.91"/>
</g>
<!-- PlatillosHasFactura -->
<g id="node10" class="node">
<title>PlatillosHasFactura</title>
<path fill="none" stroke="black" d="M512,-0.5C512,-0.5 823,-0.5 823,-0.5 829,-0.5 835,-6.5 835,-12.5 835,-12.5 835,-94.5 835,-94.5 835,-100.5 829,-106.5 823,-106.5 823,-106.5 512,-106.5 512,-106.5 506,-106.5 500,-100.5 500,-94.5 500,-94.5 500,-12.5 500,-12.5 500,-6.5 506,-0.5 512,-0.5"/>
<text text-anchor="middle" x="667.5" y="-91.3" font-family="Times,serif" font-size="14.00">PlatillosHasFactura</text>
<polyline fill="none" stroke="black" points="500,-83.5 835,-83.5 "/>
<text text-anchor="start" x="508" y="-68.3" font-family="Times,serif" font-size="14.00">id :bigint</text>
<text text-anchor="start" x="508" y="-53.3" font-family="Times,serif" font-size="14.00">platillo_id :bigint</text>
<text text-anchor="start" x="508" y="-38.3" font-family="Times,serif" font-size="14.00">factura_id :bigint</text>
<text text-anchor="start" x="508" y="-23.3" font-family="Times,serif" font-size="14.00">created_at :timestamp(6) without time zone</text>
<text text-anchor="start" x="508" y="-8.3" font-family="Times,serif" font-size="14.00">updated_at :timestamp(6) without time zone</text>
</g>
<!-- Factura&#45;&gt;PlatillosHasFactura -->
<g id="edge7" class="edge">
<title>Factura&#45;&gt;PlatillosHasFactura</title>
<path fill="none" stroke="#af6139" d="M989.11,-367.83C968.17,-297.75 926.49,-190.6 854.5,-125 849.5,-120.45 844.18,-116.18 838.62,-112.18"/>
<polygon fill="#af6139" stroke="#af6139" points="989.12,-367.86 987.61,-378.73 990.53,-372.66 991.93,-377.46 991.93,-377.46 991.93,-377.46 990.53,-372.66 996.25,-376.2 989.12,-367.86 989.12,-367.86"/>
<polygon fill="#af6139" stroke="#af6139" points="838.56,-112.14 832.84,-102.79 834.43,-109.32 830.3,-106.51 830.3,-106.51 830.3,-106.51 834.43,-109.32 827.77,-110.22 838.56,-112.14 838.56,-112.14"/>
</g>
<!-- Factura&#45;&gt;User -->
<g id="edge6" class="edge">
<title>Factura&#45;&gt;User</title>
<path fill="none" stroke="#d29524" d="M1103.67,-371.6C1123.36,-358.35 1144.36,-344.22 1164.98,-330.34"/>
<polygon fill="#d29524" stroke="#d29524" points="1103.47,-371.74 1092.66,-373.59 1099.32,-374.53 1095.17,-377.32 1095.17,-377.32 1095.17,-377.32 1099.32,-374.53 1097.69,-381.06 1103.47,-371.74 1103.47,-371.74"/>
<polygon fill="#d29524" stroke="#d29524" points="1165.18,-330.21 1175.99,-328.36 1169.33,-327.41 1173.48,-324.62 1173.48,-324.62 1173.48,-324.62 1169.33,-327.41 1170.96,-320.89 1165.18,-330.21 1165.18,-330.21"/>
</g>
<!-- Ingredient -->
<g id="node8" class="node">
<title>Ingredient</title>
<path fill="none" stroke="black" d="M106,-370C106,-370 417,-370 417,-370 423,-370 429,-376 429,-382 429,-382 429,-494 429,-494 429,-500 423,-506 417,-506 417,-506 106,-506 106,-506 100,-506 94,-500 94,-494 94,-494 94,-382 94,-382 94,-376 100,-370 106,-370"/>
<text text-anchor="middle" x="261.5" y="-490.8" font-family="Times,serif" font-size="14.00">Ingredient</text>
<polyline fill="none" stroke="black" points="94,-483 429,-483 "/>
<text text-anchor="start" x="102" y="-467.8" font-family="Times,serif" font-size="14.00">id :bigint</text>
<text text-anchor="start" x="102" y="-452.8" font-family="Times,serif" font-size="14.00">name :character varying</text>
<text text-anchor="start" x="102" y="-437.8" font-family="Times,serif" font-size="14.00">type :character varying</text>
<text text-anchor="start" x="102" y="-422.8" font-family="Times,serif" font-size="14.00">quantity :integer</text>
<text text-anchor="start" x="102" y="-407.8" font-family="Times,serif" font-size="14.00">serial :character varying</text>
<text text-anchor="start" x="102" y="-392.8" font-family="Times,serif" font-size="14.00">created_at :timestamp(6) without time zone</text>
<text text-anchor="start" x="102" y="-377.8" font-family="Times,serif" font-size="14.00">updated_at :timestamp(6) without time zone</text>
</g>
<!-- Ingredient&#45;&gt;Platillo -->
<g id="edge10" class="edge">
<title>Ingredient&#45;&gt;Platillo</title>
<path fill="none" stroke="#abe5d0" d="M399.25,-365.23C414.15,-357.65 429.12,-350.12 443.5,-343 467.72,-331.01 493.63,-318.48 518.72,-306.5"/>
<polygon fill="#abe5d0" stroke="#abe5d0" points="398.89,-365.41 387.94,-365.94 394.44,-367.68 389.98,-369.95 389.98,-369.95 389.98,-369.95 394.44,-367.68 392.03,-373.96 398.89,-365.41 398.89,-365.41"/>
<polygon fill="#abe5d0" stroke="#abe5d0" points="518.89,-306.42 529.86,-306.18 523.41,-304.27 527.92,-302.12 527.92,-302.12 527.92,-302.12 523.41,-304.27 525.99,-298.05 518.89,-306.42 518.89,-306.42"/>
</g>
<!-- PlatillosHasIngredient -->
<g id="node11" class="node">
<title>PlatillosHasIngredient</title>
<path fill="none" stroke="black" d="M149,-0.5C149,-0.5 460,-0.5 460,-0.5 466,-0.5 472,-6.5 472,-12.5 472,-12.5 472,-94.5 472,-94.5 472,-100.5 466,-106.5 460,-106.5 460,-106.5 149,-106.5 149,-106.5 143,-106.5 137,-100.5 137,-94.5 137,-94.5 137,-12.5 137,-12.5 137,-6.5 143,-0.5 149,-0.5"/>
<text text-anchor="middle" x="304.5" y="-91.3" font-family="Times,serif" font-size="14.00">PlatillosHasIngredient</text>
<polyline fill="none" stroke="black" points="137,-83.5 472,-83.5 "/>
<text text-anchor="start" x="145" y="-68.3" font-family="Times,serif" font-size="14.00">id :bigint</text>
<text text-anchor="start" x="145" y="-53.3" font-family="Times,serif" font-size="14.00">ingredient_id :bigint</text>
<text text-anchor="start" x="145" y="-38.3" font-family="Times,serif" font-size="14.00">platillo_id :bigint</text>
<text text-anchor="start" x="145" y="-23.3" font-family="Times,serif" font-size="14.00">created_at :timestamp(6) without time zone</text>
<text text-anchor="start" x="145" y="-8.3" font-family="Times,serif" font-size="14.00">updated_at :timestamp(6) without time zone</text>
</g>
<!-- Ingredient&#45;&gt;PlatillosHasIngredient -->
<g id="edge9" class="edge">
<title>Ingredient&#45;&gt;PlatillosHasIngredient</title>
<path fill="none" stroke="#d4b8c5" d="M270.2,-359.57C278.24,-288.1 290.02,-183.32 297.47,-117.03"/>
<polygon fill="#d4b8c5" stroke="#d4b8c5" points="270.16,-360 264.57,-369.43 269.6,-364.97 269.04,-369.94 269.04,-369.94 269.04,-369.94 269.6,-364.97 273.51,-370.44 270.16,-360 270.16,-360"/>
<polygon fill="#d4b8c5" stroke="#d4b8c5" points="297.51,-116.67 303.1,-107.23 298.07,-111.7 298.63,-106.73 298.63,-106.73 298.63,-106.73 298.07,-111.7 294.16,-106.23 297.51,-116.67 297.51,-116.67"/>
</g>
<!-- Platillo&#45;&gt;PlatillosHasFactura -->
<g id="edge14" class="edge">
<title>Platillo&#45;&gt;PlatillosHasFactura</title>
<path fill="none" stroke="#f777f5" d="M660.01,-170.61C661.15,-152.86 662.38,-133.91 663.5,-116.57"/>
<polygon fill="#f777f5" stroke="#f777f5" points="659.99,-170.9 654.86,-180.59 659.67,-175.89 659.35,-180.88 659.35,-180.88 659.35,-180.88 659.67,-175.89 663.84,-181.17 659.99,-170.9 659.99,-170.9"/>
<polygon fill="#f777f5" stroke="#f777f5" points="663.5,-116.55 668.63,-106.87 663.82,-111.57 664.14,-106.58 664.14,-106.58 664.14,-106.58 663.82,-111.57 659.65,-106.29 663.5,-116.55 663.5,-116.55"/>
</g>
<!-- Platillo&#45;&gt;PlatillosHasIngredient -->
<g id="edge13" class="edge">
<title>Platillo&#45;&gt;PlatillosHasIngredient</title>
<path fill="none" stroke="#0b5718" d="M533.92,-176.08C494.25,-155.05 450.5,-131.87 411.94,-111.43"/>
<polygon fill="#0b5718" stroke="#0b5718" points="534.16,-176.2 540.89,-184.86 538.58,-178.54 542.99,-180.88 542.99,-180.88 542.99,-180.88 538.58,-178.54 545.1,-176.9 534.16,-176.2 534.16,-176.2"/>
<polygon fill="#0b5718" stroke="#0b5718" points="411.61,-111.26 404.88,-102.6 407.19,-108.92 402.77,-106.58 402.77,-106.58 402.77,-106.58 407.19,-108.92 400.66,-110.55 411.61,-111.26 411.61,-111.26"/>
</g>
<!-- ActiveStorage::Attachment -->
<g id="node14" class="node">
<title>ActiveStorage::Attachment</title>
<ellipse fill="none" stroke="black" cx="989.5" cy="-53.5" rx="135.68" ry="18"/>
<text text-anchor="middle" x="989.5" y="-49.8" font-family="Times,serif" font-size="14.00">ActiveStorage::Attachment</text>
</g>
<!-- Platillo&#45;&gt;ActiveStorage::Attachment -->
<g id="edge11" class="edge">
<title>Platillo&#45;&gt;ActiveStorage::Attachment</title>
<path fill="none" stroke="#fe9b01" d="M704.8,-173.01C721,-155 740.34,-137.17 761.5,-125 793.84,-106.39 807.65,-117.33 843.5,-107 875.8,-97.69 911.3,-84.98 939.21,-74.4"/>
<polygon fill="#fe9b01" stroke="#fe9b01" points="704.63,-173.2 694.66,-177.77 701.34,-176.96 698.05,-180.73 698.05,-180.73 698.05,-180.73 701.34,-176.96 701.44,-183.69 704.63,-173.2 704.63,-173.2"/>
<polygon fill="#fe9b01" stroke="#fe9b01" points="939.4,-74.33 950.35,-74.96 944.07,-72.54 948.74,-70.76 948.74,-70.76 948.74,-70.76 944.07,-72.54 947.14,-66.55 939.4,-74.33 939.4,-74.33"/>
<text text-anchor="middle" x="828" y="-128.8" font-family="Times,serif" font-size="14.00">image_attachment</text>
</g>
<!-- ActiveStorage::Blob -->
<g id="node15" class="node">
<title>ActiveStorage::Blob</title>
<ellipse fill="none" stroke="black" cx="1278.5" cy="-53.5" rx="102.88" ry="18"/>
<text text-anchor="middle" x="1278.5" y="-49.8" font-family="Times,serif" font-size="14.00">ActiveStorage::Blob</text>
</g>
<!-- Platillo&#45;&gt;ActiveStorage::Blob -->
<g id="edge12" class="edge">
<title>Platillo&#45;&gt;ActiveStorage::Blob</title>
<path fill="none" stroke="#dc881f" d="M832.84,-178.51C892,-159.41 958.61,-139.59 1020.5,-125 1070.43,-113.23 1084.84,-119.84 1134.5,-107 1167.68,-98.42 1203.93,-85.18 1231.76,-74.14"/>
<polygon fill="#dc881f" stroke="#dc881f" points="832.54,-178.6 821.64,-177.41 827.79,-180.15 823.03,-181.69 823.03,-181.69 823.03,-181.69 827.79,-180.15 824.42,-185.97 832.54,-178.6 832.54,-178.6"/>
<polygon fill="#dc881f" stroke="#dc881f" points="1231.95,-74.07 1242.91,-74.52 1236.59,-72.21 1241.23,-70.34 1241.23,-70.34 1241.23,-70.34 1236.59,-72.21 1239.56,-66.17 1231.95,-74.07 1231.95,-74.07"/>
<text text-anchor="middle" x="1061.5" y="-128.8" font-family="Times,serif" font-size="14.00">image_blob</text>
</g>
<!-- Role -->
<g id="node12" class="node">
<title>Role</title>
<path fill="none" stroke="black" d="M1596,-377.5C1596,-377.5 1907,-377.5 1907,-377.5 1913,-377.5 1919,-383.5 1919,-389.5 1919,-389.5 1919,-486.5 1919,-486.5 1919,-492.5 1913,-498.5 1907,-498.5 1907,-498.5 1596,-498.5 1596,-498.5 1590,-498.5 1584,-492.5 1584,-486.5 1584,-486.5 1584,-389.5 1584,-389.5 1584,-383.5 1590,-377.5 1596,-377.5"/>
<text text-anchor="middle" x="1751.5" y="-483.3" font-family="Times,serif" font-size="14.00">Role</text>
<polyline fill="none" stroke="black" points="1584,-475.5 1919,-475.5 "/>
<text text-anchor="start" x="1592" y="-460.3" font-family="Times,serif" font-size="14.00">id :bigint</text>
<text text-anchor="start" x="1592" y="-445.3" font-family="Times,serif" font-size="14.00">name :character varying</text>
<text text-anchor="start" x="1592" y="-430.3" font-family="Times,serif" font-size="14.00">resource_type :character varying</text>
<text text-anchor="start" x="1592" y="-415.3" font-family="Times,serif" font-size="14.00">resource_id :bigint</text>
<text text-anchor="start" x="1592" y="-400.3" font-family="Times,serif" font-size="14.00">created_at :timestamp(6) without time zone</text>
<text text-anchor="start" x="1592" y="-385.3" font-family="Times,serif" font-size="14.00">updated_at :timestamp(6) without time zone</text>
</g>
<!-- Role&#45;&gt;User -->
<g id="edge15" class="edge">
<title>Role&#45;&gt;User</title>
<path fill="none" stroke="#c54c55" d="M1632.27,-372.73C1611.55,-362.34 1590.06,-352.04 1569.5,-343 1538.58,-329.41 1505.18,-316.08 1472.69,-303.8"/>
<polygon fill="#c54c55" stroke="#c54c55" points="1632.48,-372.83 1639.38,-381.36 1636.94,-375.09 1641.41,-377.34 1641.41,-377.34 1641.41,-377.34 1636.94,-375.09 1643.43,-373.32 1632.48,-372.83 1632.48,-372.83"/>
<polygon fill="#c54c55" stroke="#c54c55" points="1472.45,-303.71 1464.68,-295.98 1467.77,-301.95 1463.09,-300.19 1463.09,-300.19 1463.09,-300.19 1467.77,-301.95 1461.51,-304.4 1472.45,-303.71 1472.45,-303.71"/>
</g>
<!-- Resource -->
<g id="node16" class="node">
<title>Resource</title>
<ellipse fill="none" stroke="black" cx="1751.5" cy="-241.5" rx="53.89" ry="18"/>
<text text-anchor="middle" x="1751.5" y="-237.8" font-family="Times,serif" font-size="14.00">Resource</text>
</g>
<!-- Role&#45;&gt;Resource -->
<g id="edge16" class="edge">
<title>Role&#45;&gt;Resource</title>
<path fill="none" stroke="#ab5141" d="M1751.5,-367.13C1751.5,-333.46 1751.5,-295.02 1751.5,-269.84"/>
<polygon fill="#ab5141" stroke="#ab5141" points="1751.5,-367.32 1747,-377.32 1751.5,-372.32 1751.5,-377.32 1751.5,-377.32 1751.5,-377.32 1751.5,-372.32 1756,-377.32 1751.5,-367.32 1751.5,-367.32"/>
<polygon fill="#ab5141" stroke="#ab5141" points="1751.5,-269.59 1756,-259.59 1751.5,-264.59 1751.5,-259.59 1751.5,-259.59 1751.5,-259.59 1751.5,-264.59 1747,-259.59 1751.5,-269.59 1751.5,-269.59"/>
</g>
<!-- User&#45;&gt;ActiveStorage::Attachment -->
<g id="edge17" class="edge">
<title>User&#45;&gt;ActiveStorage::Attachment</title>
<path fill="none" stroke="#a25efd" d="M1151.55,-153C1105.05,-124.74 1057.44,-95.79 1025.96,-76.66"/>
<polygon fill="#a25efd" stroke="#a25efd" points="1151.85,-153.18 1158.06,-162.22 1156.12,-155.78 1160.39,-158.38 1160.39,-158.38 1160.39,-158.38 1156.12,-155.78 1162.73,-154.53 1151.85,-153.18 1151.85,-153.18"/>
<polygon fill="#a25efd" stroke="#a25efd" points="1025.67,-76.49 1019.46,-67.45 1021.4,-73.89 1017.13,-71.29 1017.13,-71.29 1017.13,-71.29 1021.4,-73.89 1014.79,-75.14 1025.67,-76.49 1025.67,-76.49"/>
<text text-anchor="middle" x="1192" y="-128.8" font-family="Times,serif" font-size="14.00">avatar_attachment</text>
</g>
<!-- User&#45;&gt;ActiveStorage::Blob -->
<g id="edge18" class="edge">
<title>User&#45;&gt;ActiveStorage::Blob</title>
<path fill="none" stroke="#2ceb92" d="M1287.05,-148.05C1284.84,-123.82 1282.62,-99.55 1281,-81.8"/>
<polygon fill="#2ceb92" stroke="#2ceb92" points="1287.08,-148.42 1283.51,-158.79 1287.54,-153.4 1287.99,-158.38 1287.99,-158.38 1287.99,-158.38 1287.54,-153.4 1292.48,-157.97 1287.08,-148.42 1287.08,-148.42"/>
<polygon fill="#2ceb92" stroke="#2ceb92" points="1280.98,-81.61 1284.55,-71.24 1280.52,-76.63 1280.07,-71.65 1280.07,-71.65 1280.07,-71.65 1280.52,-76.63 1275.59,-72.06 1280.98,-81.61 1280.98,-81.61"/>
<text text-anchor="middle" x="1328.5" y="-128.8" font-family="Times,serif" font-size="14.00">avatar_blob</text>
</g>
</g>
</svg>
